<svg xmlns="http://www.w3.org/2000/svg" viewBox="0 0 64 64" width="64" height="64">
  <defs>
    <linearGradient id="sunGradient" x1="0%" y1="0%" x2="100%" y2="100%">
      <stop offset="0%" style="stop-color:#FDB813;stop-opacity:1" />
      <stop offset="100%" style="stop-color:#FF8C00;stop-opacity:1" />
    </linearGradient>
    <linearGradient id="cloudGradient" x1="0%" y1="0%" x2="0%" y2="100%">
      <stop offset="0%" style="stop-color:#FFFFFF;stop-opacity:1" />
      <stop offset="100%" style="stop-color:#E8F4F8;stop-opacity:1" />
    </linearGradient>
  </defs>
  
  <!-- Sun -->
  <circle cx="42" cy="20" r="10" fill="url(#sunGradient)"/>
  <circle cx="42" cy="20" r="7" fill="#FFD700" opacity="0.8"/>
  
  <!-- Sun rays -->
  <line x1="42" y1="6" x2="42" y2="10" stroke="#FDB813" stroke-width="2" stroke-linecap="round"/>
  <line x1="42" y1="30" x2="42" y2="34" stroke="#FDB813" stroke-width="2" stroke-linecap="round"/>
  <line x1="28" y1="20" x2="32" y2="20" stroke="#FDB813" stroke-width="2" stroke-linecap="round"/>
  <line x1="52" y1="20" x2="56" y2="20" stroke="#FDB813" stroke-width="2" stroke-linecap="round"/>
  <line x1="33" y1="11" x2="36" y2="14" stroke="#FDB813" stroke-width="2" stroke-linecap="round"/>
  <line x1="48" y1="26" x2="51" y2="29" stroke="#FDB813" stroke-width="2" stroke-linecap="round"/>
  <line x1="51" y1="11" x2="48" y2="14" stroke="#FDB813" stroke-width="2" stroke-linecap="round"/>
  <line x1="36" y1="26" x2="33" y2="29" stroke="#FDB813" stroke-width="2" stroke-linecap="round"/>
  
  <!-- Cloud -->
  <ellipse cx="28" cy="38" rx="12" ry="10" fill="url(#cloudGradient)" stroke="#B0D4E8" stroke-width="1"/>
  <ellipse cx="38" cy="36" rx="14" ry="12" fill="url(#cloudGradient)" stroke="#B0D4E8" stroke-width="1"/>
  <ellipse cx="48" cy="38" rx="11" ry="9" fill="url(#cloudGradient)" stroke="#B0D4E8" stroke-width="1"/>
  <rect x="18" y="38" width="40" height="12" fill="url(#cloudGradient)"/>
  <rect x="18" y="38" width="40" height="1" fill="#B0D4E8"/>
  
  <!-- Cloud details (darker bottom) -->
  <ellipse cx="28" cy="48" rx="12" ry="3" fill="#D8E8F0" opacity="0.6"/>
  <ellipse cx="40" cy="49" rx="14" ry="3" fill="#D8E8F0" opacity="0.6"/>
</svg>
