<svg xmlns="http://www.w3.org/2000/svg" viewBox="0 0 128 128" width="128" height="128" role="img" aria-label="Previsão do tempo">
  <defs>
    <radialGradient id="gSun" cx="35%" cy="35%" r="70%">
      <stop offset="0%"  stop-color="#FFE89A"/>
      <stop offset="55%" stop-color="#FFC84D"/>
      <stop offset="100%" stop-color="#FF9B2F"/>
    </radialGradient>

    <linearGradient id="gCloud" x1="0" y1="0" x2="0" y2="1">
      <stop offset="0%"  stop-color="#F7FAFF"/>
      <stop offset="55%" stop-color="#DDE6F0"/>
      <stop offset="100%" stop-color="#C8D2DE"/>
    </linearGradient>
    <linearGradient id="gCloudHighlight" x1="0" y1="0" x2="1" y2="1">
      <stop offset="0%" stop-color="#FFFFFF" stop-opacity="0.85"/>
      <stop offset="70%" stop-color="#FFFFFF" stop-opacity="0"/>
    </linearGradient>

    <linearGradient id="gRain" x1="0" y1="0" x2="0" y2="1">
      <stop offset="0%"  stop-color="#7ED3FF"/>
      <stop offset="100%" stop-color="#1C8CFF"/>
    </linearGradient>

    <filter id="fShadow" x="-30%" y="-30%" width="160%" height="160%">
      <feGaussianBlur in="SourceAlpha" stdDeviation="3" result="b"/>
      <feOffset in="b" dx="0" dy="3" result="o"/>
      <feColorMatrix in="o" type="matrix"
        values="0 0 0 0 0
                0 0 0 0 0
                0 0 0 0 0
                0 0 0 .22 0" result="s"/>
      <feMerge>
        <feMergeNode in="s"/>
        <feMergeNode in="SourceGraphic"/>
      </feMerge>
    </filter>
  </defs>

  <!-- Sun rays (BEHIND sun disk and cloud) -->
  <g stroke="#FFB23A" stroke-width="5" stroke-linecap="round" opacity="0.85">
    <path d="M42 10v10"/>
    <path d="M42 64v10"/>
    <path d="M10 42h10"/>
    <path d="M64 42h10"/>
    <path d="M19.5 19.5l7.5 7.5"/>
    <path d="M57 57l7.5 7.5"/>
    <path d="M64.5 19.5L57 27"/>
    <path d="M27 57l-7.5 7.5"/>
  </g>

  <!-- Sun disk (on top of rays) -->
  <circle cx="42" cy="42" r="22" fill="url(#gSun)"/>

  <!-- Cloud + rain (on top of sun/rays) -->
  <g filter="url(#fShadow)">
    <path fill="url(#gCloud)" stroke="#B7C3D1" stroke-width="2"
      d="M44 86h46c12.7 0 23-8.7 23-19.5S102.7 47 90 47c-1 0-2 .1-3 .2C83.8 37.7 75.3 31 65.2 31
         53 31 42.8 40.7 41 53.3c-10.3 1.6-18 9.1-18 18.2C23 79.7 32.2 86 44 86z"/>

    <path fill="url(#gCloudHighlight)" opacity="0.7"
      d="M39 63c2-12 12-21 26-21 9 0 17 4 22 11 1-1 6-3 12-2 9 1 14 7 14 14
         0 2-.6 4-1.5 5.8 0-9.5-8.5-16.6-20.2-16.6-1.2 0-2.5.1-3.7.3C83 45 74.8 40 65.2 40
         52.4 40 42 49.2 39 63z"/>

    <g fill="url(#gRain)" opacity="0.95">
      <path d="M55 96c0 4-3.2 7-7 7s-7-3-7-7c0-3.3 3.2-7.6 7-12.6 3.8 5 7 9.3 7 12.6z"/>
      <path d="M78 99c0 3.5-2.8 6.2-6.2 6.2S65.6 102.5 65.6 99c0-2.9 2.8-6.7 6.2-11.1 3.4 4.4 6.2 8.2 6.2 11.1z"/>
      <path d="M98 96c0 4-3.2 7-7 7s-7-3-7-7c0-3.3 3.2-7.6 7-12.6 3.8 5 7 9.3 7 12.6z"/>
    </g>
  </g>
</svg>
